<svg viewBox="0 0 511 51" fill="none" xmlns="http://www.w3.org/2000/svg">
<path d="M29.1328 40.0002L19.1573 40.0002L19.1573 49.7275L9.82705 49.7275L9.82705 40.0002L0.000466729 40.0002" stroke="#679BCF"/>
<path d="M290 40.0002L299.975 40.0002L299.975 49.7275L309.306 49.7275L309.306 40.0002L319.132 40.0002" stroke="#679BCF"/>
<path d="M319 40.0002L328.975 40.0002L328.975 49.7275L338.306 49.7275L338.306 40.0002L348.132 40.0002" stroke="#679BCF"/>
<path d="M348 40.0002L357.975 40.0002L357.975 49.7275L367.306 49.7275L367.306 40.0002L511 40.0002" stroke="#679BCF"/>
<path d="M260.867 10.9998L270.843 10.9998L270.843 1.27246L280.173 1.27246L280.173 10.9998L290 10.9998" stroke="#679BCF"/>
<path d="M317.133 11.0002L307.157 11.0002L307.157 20.7275L297.827 20.7275L297.827 11.0002L288 11.0002" stroke="#679BCF"/>
<path d="M203 11.0002L193.025 11.0002L193.025 20.7275L183.694 20.7275L183.694 11.0002L173.868 11.0002" stroke="#679BCF"/>
<path d="M8.5039e-07 11.0002L9.97547 11.0002L9.97547 20.7275L19.3058 20.7275L19.3058 11.0002L29.1323 11.0002" stroke="#679BCF"/>
<path d="M86.8672 11.0002L96.8427 11.0002L96.8427 20.7275L106.173 20.7275L106.173 11.0002L116 11.0002" stroke="#679BCF"/>
<path d="M29 40H38.75V50H48.5V40H68V30H77V40H87" stroke="#679BCF"/>
<path d="M290 40H251.25V50H241.5V40H222V30H213V40H203" stroke="#679BCF"/>
<path d="M261 11H251.25V1H241.5V11H222V21H213V11H203" stroke="#679BCF"/>
<path d="M116 11H125.75V1H135.5V11H155V21H164V11H174" stroke="#679BCF"/>
<path d="M87 11H77.25V21H67.5V11H48V1H39V11H29" stroke="#679BCF"/>
<path d="M87 40H96.75V50H106.5V40H126V30H135V40H145" stroke="#679BCF"/>
<path d="M203 40H193.25V50H183.5V40H164V30H155V40H145" stroke="#679BCF"/>
</svg>
