<svg width="136" height="183" viewBox="0 0 136 183" fill="none" xmlns="http://www.w3.org/2000/svg">
<path d="M48.2344 48H91.7344L135.234 48V91.5V135H91.7344H48.2344L48.2344 91.5V48Z" stroke="#679BCF"/>
<path d="M91.6387 48.0947L113.205 69.6615L134.772 91.2282L113.205 112.795L91.6387 134.362L70.0719 112.795L48.5052 91.2282L70.0719 69.6615L91.6387 48.0947Z" stroke="#679BCF"/>
<path d="M113.18 69.8447L113.18 91.3447L113.18 112.845L91.6797 112.845L70.1797 112.845L70.1797 91.3447L70.1797 69.8447L91.6797 69.8447L113.18 69.8447Z" stroke="#679BCF"/>
<path d="M112.751 90.9458L102.144 101.552L91.5378 112.159L80.9312 101.552L70.3246 90.9458L80.9312 80.3392L91.5378 69.7326L102.144 80.3392L112.751 90.9458Z" stroke="#679BCF"/>
<path d="M102 101L92 101L82 101L82 91L82 81L92 81L102 81L102 91L102 101Z" stroke="#679BCF"/>
<path d="M77.1824 39.6611V29.6857H67.4551V20.3554H77.1824V10.5288" stroke="#679BCF"/>
<path d="M76.9834 10.7273H86.9589V1H96.2892V10.7273H106.116" stroke="#679BCF"/>
<path d="M48 39.4129H57.9755V29.6855H67.3058V39.4129H77.1323" stroke="#679BCF"/>
<path d="M105.867 39.4129H115.843V29.6855H125.173V39.4129H135" stroke="#679BCF"/>
<path d="M105.917 10.5288V20.5043H115.645V29.8346L105.917 29.8346V39.6612" stroke="#679BCF"/>
<path d="M39.6611 105.818L29.6857 105.818L29.6857 115.545L20.3554 115.545L20.3554 105.818L10.5288 105.818" stroke="#679BCF"/>
<path d="M10.7273 106.017L10.7273 96.0411L1 96.0411L0.999999 86.7108L10.7273 86.7108L10.7273 76.8843" stroke="#679BCF"/>
<path d="M39.4129 135L39.4129 125.025L29.6855 125.025L29.6855 115.694L39.4129 115.694L39.4129 105.868" stroke="#679BCF"/>
<path d="M39.4129 77.1323L39.4129 67.1569L29.6855 67.1569L29.6855 57.8266L39.4129 57.8266L39.4129 48" stroke="#679BCF"/>
<path d="M10.5283 77.0828L20.5038 77.0828L20.5038 67.3555L29.8341 67.3555L29.8341 77.0828L39.6607 77.0828" stroke="#679BCF"/>
<path d="M106.818 143L106.818 152.975L116.545 152.975L116.545 162.306L106.818 162.306L106.818 172.132" stroke="#679BCF"/>
<path d="M107.017 171.934L97.0411 171.934L97.0411 181.661L87.7108 181.661L87.7108 171.934L77.8843 171.934" stroke="#679BCF"/>
<path d="M136 143.248L126.025 143.248L126.025 152.976L116.694 152.976L116.694 143.248L106.868 143.248" stroke="#679BCF"/>
<path d="M78.1328 143.248L68.1573 143.248L68.1573 152.976L58.8271 152.976L58.827 143.248L49.0005 143.248" stroke="#679BCF"/>
<path d="M78.0828 172.132L78.0828 162.157L68.3555 162.157L68.3555 152.827L78.0828 152.827L78.0828 143" stroke="#679BCF"/>
</svg>
