<svg viewBox="0 0 1440 826" fill="none" xmlns="http://www.w3.org/2000/svg">
<g clip-path="url(#clip0_1261_5670)">
<rect width="1440" height="826" fill="#282A36"/>
<g clip-path="url(#clip1_1261_5670)">
<path d="M718.288 406.552L743.674 340.383L688.605 295.779L663.215 361.931L718.288 406.552Z" stroke="#D7F4E1" stroke-opacity="0.02" stroke-width="3.5" stroke-linecap="round" stroke-linejoin="round"/>
<path d="M718.289 406.551L789.064 410.248L814.467 344.09L743.707 340.385L718.289 406.551Z" stroke="#D7F4E1" stroke-opacity="0.02" stroke-width="3.5" stroke-linecap="round" stroke-linejoin="round"/>
<path d="M718.246 406.519L736.601 474.972L807.371 478.688L789.028 410.247L718.246 406.519Z" stroke="#D7F4E1" stroke-opacity="0.02" stroke-width="3.5" stroke-linecap="round" stroke-linejoin="round"/>
<path d="M677.152 513.582L736.583 474.973L718.248 406.518L658.824 445.112L677.152 513.582Z" stroke="#D7F4E1" stroke-opacity="0.02" stroke-width="3.5" stroke-linecap="round" stroke-linejoin="round"/>
<path d="M603.759 400.52L658.844 445.111L718.282 406.52L663.214 361.931L603.759 400.52Z" stroke="#D7F4E1" stroke-opacity="0.02" stroke-width="3.5" stroke-linecap="round" stroke-linejoin="round"/>
<path d="M677.176 513.581L736.607 474.971L807.397 478.686L747.959 517.308L677.176 513.581Z" stroke="#D7F4E1" stroke-opacity="0.02" stroke-width="3.5" stroke-linecap="round" stroke-linejoin="round"/>
<path d="M603.724 400.518L658.809 445.109L677.152 513.582L622.052 468.988L603.724 400.518Z" stroke="#D7F4E1" stroke-opacity="0.02" stroke-width="3.5" stroke-linecap="round" stroke-linejoin="round"/>
<path d="M688.567 295.746L663.18 361.914L603.727 400.518L629.111 334.335L688.567 295.746Z" stroke="#D7F4E1" stroke-opacity="0.02" stroke-width="3.5" stroke-linecap="round" stroke-linejoin="round"/>
<path d="M688.636 295.766L759.41 299.463L814.497 344.077L743.709 340.387L688.636 295.766Z" stroke="#D7F4E1" stroke-opacity="0.02" stroke-width="3.5" stroke-linecap="round" stroke-linejoin="round"/>
<path d="M814.425 344.057L832.78 412.51L807.372 478.688L789.007 410.223L814.425 344.057Z" stroke="#D7F4E1" stroke-opacity="0.02" stroke-width="3.5" stroke-linecap="round" stroke-linejoin="round"/>
<path d="M777.64 628.081L803.026 561.913L747.956 517.309L722.567 583.46L777.64 628.081Z" stroke="#D7F4E1" stroke-opacity="0.02" stroke-width="3.5" stroke-linecap="round" stroke-linejoin="round"/>
<path d="M759.409 299.463L818.84 260.853L800.505 192.399L741.081 230.993L759.409 299.463Z" stroke="#D7F4E1" stroke-opacity="0.02" stroke-width="3.5" stroke-linecap="round" stroke-linejoin="round"/>
<path d="M539.989 262.164L558.344 330.618L629.114 334.334L610.771 265.892L539.989 262.164Z" stroke="#D7F4E1" stroke-opacity="0.02" stroke-width="3.5" stroke-linecap="round" stroke-linejoin="round"/>
<path d="M832.784 412.509L887.869 457.1L947.308 418.509L892.24 373.92L832.784 412.509Z" stroke="#D7F4E1" stroke-opacity="0.02" stroke-width="3.5" stroke-linecap="round" stroke-linejoin="round"/>
<path d="M525.873 531.451L596.648 535.147L622.051 468.99L551.291 465.285L525.873 531.451Z" stroke="#D7F4E1" stroke-opacity="0.02" stroke-width="3.5" stroke-linecap="round" stroke-linejoin="round"/>
<path d="M651.723 579.767L677.109 513.599L622.039 468.995L596.65 535.146L651.723 579.767Z" stroke="#D7F4E1" stroke-opacity="0.02" stroke-width="3.5" stroke-linecap="round" stroke-linejoin="round"/>
<path d="M651.724 579.767L722.498 583.463L747.902 517.306L677.142 513.601L651.724 579.767Z" stroke="#D7F4E1" stroke-opacity="0.02" stroke-width="3.5" stroke-linecap="round" stroke-linejoin="round"/>
<path d="M862.484 523.34L887.871 457.172L832.801 412.568L807.411 478.72L862.484 523.34Z" stroke="#D7F4E1" stroke-opacity="0.02" stroke-width="3.5" stroke-linecap="round" stroke-linejoin="round"/>
<path d="M747.957 517.309L803.042 561.9L862.481 523.308L807.412 478.72L747.957 517.309Z" stroke="#D7F4E1" stroke-opacity="0.02" stroke-width="3.5" stroke-linecap="round" stroke-linejoin="round"/>
<path d="M873.878 305.516L814.448 344.125L832.782 412.58L892.206 373.986L873.878 305.516Z" stroke="#D7F4E1" stroke-opacity="0.02" stroke-width="3.5" stroke-linecap="round" stroke-linejoin="round"/>
<path d="M873.877 305.516L818.792 260.925L759.353 299.516L814.421 344.105L873.877 305.516Z" stroke="#D7F4E1" stroke-opacity="0.02" stroke-width="3.5" stroke-linecap="round" stroke-linejoin="round"/>
<path d="M670.2 227.284L610.769 265.893L629.104 334.348L688.527 295.754L670.2 227.284Z" stroke="#D7F4E1" stroke-opacity="0.02" stroke-width="3.5" stroke-linecap="round" stroke-linejoin="round"/>
<path d="M759.31 299.481L740.955 231.028L670.185 227.312L688.527 295.753L759.31 299.481Z" stroke="#D7F4E1" stroke-opacity="0.02" stroke-width="3.5" stroke-linecap="round" stroke-linejoin="round"/>
<path d="M532.914 396.754L551.269 465.207L622.039 468.923L603.696 400.482L532.914 396.754Z" stroke="#D7F4E1" stroke-opacity="0.02" stroke-width="3.5" stroke-linecap="round" stroke-linejoin="round"/>
<path d="M629.116 334.315L558.341 330.619L532.938 396.777L603.698 400.482L629.116 334.315Z" stroke="#D7F4E1" stroke-opacity="0.02" stroke-width="3.5" stroke-linecap="round" stroke-linejoin="round"/>
<path d="M640.523 116.51L695.592 161.121L670.202 227.284L615.138 182.69L640.523 116.51Z" stroke="#D7F4E1" stroke-opacity="0.02" stroke-width="3.5" stroke-linecap="round" stroke-linejoin="round"/>
<path d="M640.519 116.511L699.963 77.9226L755.042 122.515L695.615 161.104L640.519 116.511Z" stroke="#D7F4E1" stroke-opacity="0.02" stroke-width="3.5" stroke-linecap="round" stroke-linejoin="round"/>
<path d="M640.5 116.558L622.169 48.0986L681.6 9.4954L699.936 77.9386L640.5 116.558Z" stroke="#D7F4E1" stroke-opacity="0.02" stroke-width="3.5" stroke-linecap="round" stroke-linejoin="round"/>
<path d="M551.381 44.3871L622.155 48.1087L640.503 116.559L569.744 112.848L551.381 44.3871Z" stroke="#D7F4E1" stroke-opacity="0.02" stroke-width="3.5" stroke-linecap="round" stroke-linejoin="round"/>
<path d="M544.352 178.998L569.761 112.839L640.532 116.541L615.136 182.69L544.352 178.998Z" stroke="#D7F4E1" stroke-opacity="0.02" stroke-width="3.5" stroke-linecap="round" stroke-linejoin="round"/>
<path d="M418.412 390.773L477.857 352.184L532.935 396.777L473.508 435.365L418.412 390.773Z" stroke="#D7F4E1" stroke-opacity="0.02" stroke-width="3.5" stroke-linecap="round" stroke-linejoin="round"/>
<path d="M418.416 390.774L400.085 322.314L459.516 283.711L477.852 352.154L418.416 390.774Z" stroke="#D7F4E1" stroke-opacity="0.02" stroke-width="3.5" stroke-linecap="round" stroke-linejoin="round"/>
<path d="M418.456 390.805L347.682 387.083L329.333 318.632L400.093 322.344L418.456 390.805Z" stroke="#D7F4E1" stroke-opacity="0.02" stroke-width="3.5" stroke-linecap="round" stroke-linejoin="round"/>
<path d="M322.278 453.262L347.688 387.103L418.459 390.804L393.063 456.954L322.278 453.262Z" stroke="#D7F4E1" stroke-opacity="0.02" stroke-width="3.5" stroke-linecap="round" stroke-linejoin="round"/>
<path d="M448.125 501.545L393.055 456.934L418.445 390.771L473.509 435.366L448.125 501.545Z" stroke="#D7F4E1" stroke-opacity="0.02" stroke-width="3.5" stroke-linecap="round" stroke-linejoin="round"/>
<path d="M610.639 686.78L665.708 731.39L640.319 797.553L585.255 752.959L610.639 686.78Z" stroke="#D7F4E1" stroke-opacity="0.02" stroke-width="3.5" stroke-linecap="round" stroke-linejoin="round"/>
<path d="M610.642 686.779L670.086 648.19L725.165 692.783L665.738 731.371L610.642 686.779Z" stroke="#D7F4E1" stroke-opacity="0.02" stroke-width="3.5" stroke-linecap="round" stroke-linejoin="round"/>
<path d="M610.623 686.83L592.292 618.37L651.723 579.767L670.059 648.21L610.623 686.83Z" stroke="#D7F4E1" stroke-opacity="0.02" stroke-width="3.5" stroke-linecap="round" stroke-linejoin="round"/>
<path d="M521.502 614.656L592.276 618.378L610.625 686.829L539.865 683.117L521.502 614.656Z" stroke="#D7F4E1" stroke-opacity="0.02" stroke-width="3.5" stroke-linecap="round" stroke-linejoin="round"/>
<path d="M514.474 749.267L539.883 683.108L610.654 686.809L585.258 752.958L514.474 749.267Z" stroke="#D7F4E1" stroke-opacity="0.02" stroke-width="3.5" stroke-linecap="round" stroke-linejoin="round"/>
<path d="M951.623 595.463L1006.69 640.073L981.303 706.236L926.239 661.642L951.623 595.463Z" stroke="#D7F4E1" stroke-opacity="0.02" stroke-width="3.5" stroke-linecap="round" stroke-linejoin="round"/>
<path d="M951.624 595.463L1011.07 556.874L1066.15 601.466L1006.72 640.055L951.624 595.463Z" stroke="#D7F4E1" stroke-opacity="0.02" stroke-width="3.5" stroke-linecap="round" stroke-linejoin="round"/>
<path d="M951.603 595.514L933.272 527.054L992.702 488.451L1011.04 556.894L951.603 595.514Z" stroke="#D7F4E1" stroke-opacity="0.02" stroke-width="3.5" stroke-linecap="round" stroke-linejoin="round"/>
<path d="M862.483 523.339L933.256 527.06L951.605 595.511L880.846 591.799L862.483 523.339Z" stroke="#D7F4E1" stroke-opacity="0.02" stroke-width="3.5" stroke-linecap="round" stroke-linejoin="round"/>
<path d="M855.453 657.951L880.863 591.791L951.634 595.493L926.238 661.642L855.453 657.951Z" stroke="#D7F4E1" stroke-opacity="0.02" stroke-width="3.5" stroke-linecap="round" stroke-linejoin="round"/>
<path d="M970.046 243.027L1025.12 287.637L999.726 353.8L944.662 309.206L970.046 243.027Z" stroke="#D7F4E1" stroke-opacity="0.02" stroke-width="3.5" stroke-linecap="round" stroke-linejoin="round"/>
<path d="M970.042 243.029L1029.49 204.44L1084.57 249.033L1025.14 287.621L970.042 243.029Z" stroke="#D7F4E1" stroke-opacity="0.02" stroke-width="3.5" stroke-linecap="round" stroke-linejoin="round"/>
<path d="M970.026 243.078L951.695 174.618L1011.13 136.015L1029.46 204.458L970.026 243.078Z" stroke="#D7F4E1" stroke-opacity="0.02" stroke-width="3.5" stroke-linecap="round" stroke-linejoin="round"/>
<path d="M880.905 170.905L951.678 174.626L970.027 243.077L899.268 239.365L880.905 170.905Z" stroke="#D7F4E1" stroke-opacity="0.02" stroke-width="3.5" stroke-linecap="round" stroke-linejoin="round"/>
<path d="M873.874 305.517L899.284 239.357L970.054 243.059L944.659 309.208L873.874 305.517Z" stroke="#D7F4E1" stroke-opacity="0.02" stroke-width="3.5" stroke-linecap="round" stroke-linejoin="round"/>
<path d="M880.906 170.904L899.261 239.357L873.853 305.535L855.488 237.071L880.906 170.904Z" stroke="#D7F4E1" stroke-opacity="0.02" stroke-width="3.5" stroke-linecap="round" stroke-linejoin="round"/>
<path d="M800.512 192.382L855.598 236.973L873.94 305.446L818.84 260.852L800.512 192.382Z" stroke="#D7F4E1" stroke-opacity="0.02" stroke-width="3.5" stroke-linecap="round" stroke-linejoin="round"/>
<path d="M947.384 418.386L892.299 373.795L873.957 305.322L929.056 349.916L947.384 418.386Z" stroke="#D7F4E1" stroke-opacity="0.02" stroke-width="3.5" stroke-linecap="round" stroke-linejoin="round"/>
<path d="M999.8 353.757L929.025 350.06L873.938 305.446L944.727 309.136L999.8 353.757Z" stroke="#D7F4E1" stroke-opacity="0.02" stroke-width="3.5" stroke-linecap="round" stroke-linejoin="round"/>
<path d="M992.655 488.205L933.224 526.815L862.434 523.1L921.872 484.478L992.655 488.205Z" stroke="#D7F4E1" stroke-opacity="0.02" stroke-width="3.5" stroke-linecap="round" stroke-linejoin="round"/>
<path d="M947.385 418.386L921.999 484.555L862.545 523.159L887.93 456.975L947.385 418.386Z" stroke="#D7F4E1" stroke-opacity="0.02" stroke-width="3.5" stroke-linecap="round" stroke-linejoin="round"/>
<path d="M777.832 627.908L803.218 561.74L862.672 523.136L837.287 589.319L777.832 627.908Z" stroke="#D7F4E1" stroke-opacity="0.02" stroke-width="3.5" stroke-linecap="round" stroke-linejoin="round"/>
<path d="M855.494 657.786L837.139 589.333L862.547 523.156L880.912 591.62L855.494 657.786Z" stroke="#D7F4E1" stroke-opacity="0.02" stroke-width="3.5" stroke-linecap="round" stroke-linejoin="round"/>
<path d="M725.153 692.828L670.067 648.237L651.725 579.764L706.825 624.358L725.153 692.828Z" stroke="#D7F4E1" stroke-opacity="0.02" stroke-width="3.5" stroke-linecap="round" stroke-linejoin="round"/>
<path d="M777.565 628.201L706.79 624.505L651.703 579.89L722.492 583.581L777.565 628.201Z" stroke="#D7F4E1" stroke-opacity="0.02" stroke-width="3.5" stroke-linecap="round" stroke-linejoin="round"/>
<path d="M525.897 531.694L596.672 535.39L651.759 580.005L580.97 576.314L525.897 531.694Z" stroke="#D7F4E1" stroke-opacity="0.02" stroke-width="3.5" stroke-linecap="round" stroke-linejoin="round"/>
<path d="M521.482 614.787L580.913 576.177L651.702 579.892L592.264 618.514L521.482 614.787Z" stroke="#D7F4E1" stroke-opacity="0.02" stroke-width="3.5" stroke-linecap="round" stroke-linejoin="round"/>
<path d="M448.076 501.526L473.462 435.358L532.916 396.754L507.531 462.937L448.076 501.526Z" stroke="#D7F4E1" stroke-opacity="0.02" stroke-width="3.5" stroke-linecap="round" stroke-linejoin="round"/>
<path d="M525.738 531.404L507.383 462.951L532.791 396.774L551.156 465.238L525.738 531.404Z" stroke="#D7F4E1" stroke-opacity="0.02" stroke-width="3.5" stroke-linecap="round" stroke-linejoin="round"/>
<path d="M539.753 262.233L558.108 330.686L532.7 396.863L514.335 328.399L539.753 262.233Z" stroke="#D7F4E1" stroke-opacity="0.02" stroke-width="3.5" stroke-linecap="round" stroke-linejoin="round"/>
<path d="M459.362 283.71L514.447 328.301L532.79 396.774L477.69 352.18L459.362 283.71Z" stroke="#D7F4E1" stroke-opacity="0.02" stroke-width="3.5" stroke-linecap="round" stroke-linejoin="round"/>
<path d="M544.336 178.973L615.111 182.67L670.197 227.284L599.409 223.594L544.336 178.973Z" stroke="#D7F4E1" stroke-opacity="0.02" stroke-width="3.5" stroke-linecap="round" stroke-linejoin="round"/>
<path d="M539.92 262.067L599.351 223.458L670.141 227.172L610.703 265.795L539.92 262.067Z" stroke="#D7F4E1" stroke-opacity="0.02" stroke-width="3.5" stroke-linecap="round" stroke-linejoin="round"/>
<path d="M800.253 192.219L740.822 230.829L670.032 227.114L729.47 188.491L800.253 192.219Z" stroke="#D7F4E1" stroke-opacity="0.02" stroke-width="3.5" stroke-linecap="round" stroke-linejoin="round"/>
<path d="M754.979 122.399L729.593 188.567L670.139 227.171L695.524 160.988L754.979 122.399Z" stroke="#D7F4E1" stroke-opacity="0.02" stroke-width="3.5" stroke-linecap="round" stroke-linejoin="round"/>
<path d="M484.654 217.626L459.268 283.794L514.338 328.398L539.727 262.247L484.654 217.626Z" stroke="#D7F4E1" stroke-opacity="0.02" stroke-width="3.5" stroke-linecap="round" stroke-linejoin="round"/>
<path d="M599.18 223.659L544.094 179.068L484.656 217.659L539.724 262.248L599.18 223.659Z" stroke="#D7F4E1" stroke-opacity="0.02" stroke-width="3.5" stroke-linecap="round" stroke-linejoin="round"/>
<path d="M825.648 126.031L754.873 122.334L729.469 188.492L800.229 192.197L825.648 126.031Z" stroke="#D7F4E1" stroke-opacity="0.02" stroke-width="3.5" stroke-linecap="round" stroke-linejoin="round"/>
<path d="M855.3 236.817L880.686 170.649L825.616 126.045L800.227 192.197L855.3 236.817Z" stroke="#D7F4E1" stroke-opacity="0.02" stroke-width="3.5" stroke-linecap="round" stroke-linejoin="round"/>
<path d="M1018.08 422.254L999.724 353.801L928.954 350.085L947.296 418.526L1018.08 422.254Z" stroke="#D7F4E1" stroke-opacity="0.02" stroke-width="3.5" stroke-linecap="round" stroke-linejoin="round"/>
<path d="M921.876 484.693L992.651 488.39L1018.05 422.232L947.294 418.527L921.876 484.693Z" stroke="#D7F4E1" stroke-opacity="0.02" stroke-width="3.5" stroke-linecap="round" stroke-linejoin="round"/>
<path d="M795.899 696.704L855.33 658.094L836.995 589.64L777.571 628.234L795.899 696.704Z" stroke="#D7F4E1" stroke-opacity="0.02" stroke-width="3.5" stroke-linecap="round" stroke-linejoin="round"/>
<path d="M706.789 624.505L725.144 692.958L795.914 696.674L777.571 628.233L706.789 624.505Z" stroke="#D7F4E1" stroke-opacity="0.02" stroke-width="3.5" stroke-linecap="round" stroke-linejoin="round"/>
<path d="M466.256 570.01L521.341 614.601L580.779 576.01L525.711 531.421L466.256 570.01Z" stroke="#D7F4E1" stroke-opacity="0.02" stroke-width="3.5" stroke-linecap="round" stroke-linejoin="round"/>
<path d="M507.383 462.951L447.952 501.56L466.287 570.015L525.711 531.421L507.383 462.951Z" stroke="#D7F4E1" stroke-opacity="0.02" stroke-width="3.5" stroke-linecap="round" stroke-linejoin="round"/>
<path d="M521.34 614.601L539.695 683.054L514.287 749.231L495.922 680.767L521.34 614.601Z" stroke="#D7F4E1" stroke-opacity="0.02" stroke-width="3.5" stroke-linecap="round" stroke-linejoin="round"/>
<path d="M495.922 680.767L521.308 614.599L466.238 569.995L440.849 636.146L495.922 680.767Z" stroke="#D7F4E1" stroke-opacity="0.02" stroke-width="3.5" stroke-linecap="round" stroke-linejoin="round"/>
<path d="M454.827 787.831L514.258 749.221L495.923 680.767L436.499 719.361L454.827 787.831Z" stroke="#D7F4E1" stroke-opacity="0.02" stroke-width="3.5" stroke-linecap="round" stroke-linejoin="round"/>
<path d="M381.396 674.735L436.481 719.326L495.919 680.735L440.851 636.146L381.396 674.735Z" stroke="#D7F4E1" stroke-opacity="0.02" stroke-width="3.5" stroke-linecap="round" stroke-linejoin="round"/>
<path d="M514.471 749.267L585.245 752.964L640.332 797.579L569.544 793.888L514.471 749.267Z" stroke="#D7F4E1" stroke-opacity="0.02" stroke-width="3.5" stroke-linecap="round" stroke-linejoin="round"/>
<path d="M569.545 793.888L514.46 749.297L455.021 787.888L510.089 832.477L569.545 793.888Z" stroke="#D7F4E1" stroke-opacity="0.02" stroke-width="3.5" stroke-linecap="round" stroke-linejoin="round"/>
<path d="M658.669 866.058L640.314 797.605L569.544 793.889L587.887 862.33L658.669 866.058Z" stroke="#D7F4E1" stroke-opacity="0.02" stroke-width="3.5" stroke-linecap="round" stroke-linejoin="round"/>
<path d="M528.419 900.947L587.85 862.337L569.515 793.883L510.092 832.477L528.419 900.947Z" stroke="#D7F4E1" stroke-opacity="0.02" stroke-width="3.5" stroke-linecap="round" stroke-linejoin="round"/>
<path d="M640.307 797.73L665.694 731.561L725.147 692.957L699.763 759.141L640.307 797.73Z" stroke="#D7F4E1" stroke-opacity="0.02" stroke-width="3.5" stroke-linecap="round" stroke-linejoin="round"/>
<path d="M699.761 759.14L640.33 797.75L658.665 866.204L718.089 827.61L699.761 759.14Z" stroke="#D7F4E1" stroke-opacity="0.02" stroke-width="3.5" stroke-linecap="round" stroke-linejoin="round"/>
<path d="M795.938 696.679L725.163 692.982L699.759 759.14L770.519 762.845L795.938 696.679Z" stroke="#D7F4E1" stroke-opacity="0.02" stroke-width="3.5" stroke-linecap="round" stroke-linejoin="round"/>
<path d="M788.871 831.338L770.516 762.885L699.747 759.169L718.089 827.61L788.871 831.338Z" stroke="#D7F4E1" stroke-opacity="0.02" stroke-width="3.5" stroke-linecap="round" stroke-linejoin="round"/>
<path d="M855.12 658.015L925.895 661.712L980.981 706.327L910.193 702.636L855.12 658.015Z" stroke="#D7F4E1" stroke-opacity="0.02" stroke-width="3.5" stroke-linecap="round" stroke-linejoin="round"/>
<path d="M910.193 702.635L855.108 658.044L795.67 696.635L850.738 741.224L910.193 702.635Z" stroke="#D7F4E1" stroke-opacity="0.02" stroke-width="3.5" stroke-linecap="round" stroke-linejoin="round"/>
<path d="M869.063 809.695L928.494 771.085L910.159 702.631L850.735 741.225L869.063 809.695Z" stroke="#D7F4E1" stroke-opacity="0.02" stroke-width="3.5" stroke-linecap="round" stroke-linejoin="round"/>
<path d="M981.076 706.159L1006.46 639.991L1065.92 601.387L1040.53 667.57L981.076 706.159Z" stroke="#D7F4E1" stroke-opacity="0.02" stroke-width="3.5" stroke-linecap="round" stroke-linejoin="round"/>
<path d="M1040.53 667.57L981.099 706.18L999.434 774.635L1058.86 736.04L1040.53 667.57Z" stroke="#D7F4E1" stroke-opacity="0.02" stroke-width="3.5" stroke-linecap="round" stroke-linejoin="round"/>
<path d="M1136.71 605.109L1065.93 601.413L1040.53 667.57L1111.29 671.275L1136.71 605.109Z" stroke="#D7F4E1" stroke-opacity="0.02" stroke-width="3.5" stroke-linecap="round" stroke-linejoin="round"/>
<path d="M1129.64 739.768L1111.29 671.315L1040.52 667.599L1058.86 736.04L1129.64 739.768Z" stroke="#D7F4E1" stroke-opacity="0.02" stroke-width="3.5" stroke-linecap="round" stroke-linejoin="round"/>
<path d="M1066.05 601.462L1010.96 556.871L992.623 488.398L1047.72 532.992L1066.05 601.462Z" stroke="#D7F4E1" stroke-opacity="0.02" stroke-width="3.5" stroke-linecap="round" stroke-linejoin="round"/>
<path d="M1047.72 532.992L1066.08 601.445L1136.85 605.161L1118.5 536.72L1047.72 532.992Z" stroke="#D7F4E1" stroke-opacity="0.02" stroke-width="3.5" stroke-linecap="round" stroke-linejoin="round"/>
<path d="M1018.04 422.219L992.654 488.388L1047.72 532.992L1073.11 466.84L1018.04 422.219Z" stroke="#D7F4E1" stroke-opacity="0.02" stroke-width="3.5" stroke-linecap="round" stroke-linejoin="round"/>
<path d="M1143.92 470.554L1073.15 466.857L1047.74 533.015L1118.5 536.72L1143.92 470.554Z" stroke="#D7F4E1" stroke-opacity="0.02" stroke-width="3.5" stroke-linecap="round" stroke-linejoin="round"/>
<path d="M999.842 353.991L1025.23 287.822L1084.68 249.218L1059.3 315.401L999.842 353.991Z" stroke="#D7F4E1" stroke-opacity="0.02" stroke-width="3.5" stroke-linecap="round" stroke-linejoin="round"/>
<path d="M1059.3 315.401L999.868 354.011L1018.2 422.465L1077.63 383.871L1059.3 315.401Z" stroke="#D7F4E1" stroke-opacity="0.02" stroke-width="3.5" stroke-linecap="round" stroke-linejoin="round"/>
<path d="M1148.41 387.599L1130.05 319.146L1059.28 315.43L1077.63 383.871L1148.41 387.599Z" stroke="#D7F4E1" stroke-opacity="0.02" stroke-width="3.5" stroke-linecap="round" stroke-linejoin="round"/>
<path d="M1084.55 249.079L1029.47 204.488L1011.12 136.015L1066.22 180.609L1084.55 249.079Z" stroke="#D7F4E1" stroke-opacity="0.02" stroke-width="3.5" stroke-linecap="round" stroke-linejoin="round"/>
<path d="M1066.23 180.607L1084.58 249.06L1155.35 252.776L1137.01 184.335L1066.23 180.607Z" stroke="#D7F4E1" stroke-opacity="0.02" stroke-width="3.5" stroke-linecap="round" stroke-linejoin="round"/>
<path d="M1036.54 69.8365L1011.15 136.005L1066.22 180.609L1091.61 114.457L1036.54 69.8365Z" stroke="#D7F4E1" stroke-opacity="0.02" stroke-width="3.5" stroke-linecap="round" stroke-linejoin="round"/>
<path d="M1162.42 118.17L1091.65 114.473L1066.24 180.631L1137 184.336L1162.42 118.17Z" stroke="#D7F4E1" stroke-opacity="0.02" stroke-width="3.5" stroke-linecap="round" stroke-linejoin="round"/>
<path d="M1011.24 135.909L951.806 174.519L881.016 170.804L940.454 132.181L1011.24 135.909Z" stroke="#D7F4E1" stroke-opacity="0.02" stroke-width="3.5" stroke-linecap="round" stroke-linejoin="round"/>
<path d="M940.454 132.181L1011.23 135.878L1036.63 69.7201L965.872 66.0151L940.454 132.181Z" stroke="#D7F4E1" stroke-opacity="0.02" stroke-width="3.5" stroke-linecap="round" stroke-linejoin="round"/>
<path d="M825.931 126.181L881.016 170.772L940.454 132.181L885.386 87.5921L825.931 126.181Z" stroke="#D7F4E1" stroke-opacity="0.02" stroke-width="3.5" stroke-linecap="round" stroke-linejoin="round"/>
<path d="M910.798 21.3951L885.412 87.5635L940.481 132.167L965.871 66.0158L910.798 21.3951Z" stroke="#D7F4E1" stroke-opacity="0.02" stroke-width="3.5" stroke-linecap="round" stroke-linejoin="round"/>
<path d="M754.82 122.346L699.734 77.7555L681.392 9.28251L736.492 53.8765L754.82 122.346Z" stroke="#D7F4E1" stroke-opacity="0.02" stroke-width="3.5" stroke-linecap="round" stroke-linejoin="round"/>
<path d="M736.492 53.8758L754.847 122.329L825.617 126.045L807.274 57.6036L736.492 53.8758Z" stroke="#D7F4E1" stroke-opacity="0.02" stroke-width="3.5" stroke-linecap="round" stroke-linejoin="round"/>
<path d="M832.696 -8.56354L761.922 -12.2602L736.518 53.8976L807.278 57.6026L832.696 -8.56354Z" stroke="#D7F4E1" stroke-opacity="0.02" stroke-width="3.5" stroke-linecap="round" stroke-linejoin="round"/>
<path d="M681.22 9.35976L621.79 47.9694L551 44.2547L610.438 5.63201L681.22 9.35976Z" stroke="#D7F4E1" stroke-opacity="0.02" stroke-width="3.5" stroke-linecap="round" stroke-linejoin="round"/>
<path d="M610.438 5.6319L681.213 9.32854L706.616 -56.8293L635.857 -60.5342L610.438 5.6319Z" stroke="#D7F4E1" stroke-opacity="0.02" stroke-width="3.5" stroke-linecap="round" stroke-linejoin="round"/>
<path d="M495.915 -0.368713L551 44.2223L610.439 5.63119L555.371 -38.9577L495.915 -0.368713Z" stroke="#D7F4E1" stroke-opacity="0.02" stroke-width="3.5" stroke-linecap="round" stroke-linejoin="round"/>
<path d="M580.781 -105.154L555.395 -38.9858L610.465 5.61808L635.854 -60.5335L580.781 -105.154Z" stroke="#D7F4E1" stroke-opacity="0.02" stroke-width="3.5" stroke-linecap="round" stroke-linejoin="round"/>
<path d="M550.929 44.1154L569.284 112.568L543.876 178.746L525.511 110.282L550.929 44.1154Z" stroke="#D7F4E1" stroke-opacity="0.02" stroke-width="3.5" stroke-linecap="round" stroke-linejoin="round"/>
<path d="M525.514 110.281L550.9 44.1127L495.83 -0.491126L470.441 65.6605L525.514 110.281Z" stroke="#D7F4E1" stroke-opacity="0.02" stroke-width="3.5" stroke-linecap="round" stroke-linejoin="round"/>
<path d="M484.416 217.347L543.846 178.737L525.512 110.282L466.088 148.877L484.416 217.347Z" stroke="#D7F4E1" stroke-opacity="0.02" stroke-width="3.5" stroke-linecap="round" stroke-linejoin="round"/>
<path d="M410.985 104.25L466.07 148.841L525.508 110.25L470.44 65.6614L410.985 104.25Z" stroke="#D7F4E1" stroke-opacity="0.02" stroke-width="3.5" stroke-linecap="round" stroke-linejoin="round"/>
<path d="M706.99 -56.6748L681.604 9.49371L736.674 54.0976L762.063 -12.054L706.99 -56.6748Z" stroke="#D7F4E1" stroke-opacity="0.02" stroke-width="3.5" stroke-linecap="round" stroke-linejoin="round"/>
<path d="M1155.34 252.728L1084.57 249.032L1059.16 315.19L1129.92 318.895L1155.34 252.728Z" stroke="#D7F4E1" stroke-opacity="0.02" stroke-width="3.5" stroke-linecap="round" stroke-linejoin="round"/>
<path d="M999.279 774.812L980.924 706.359L910.154 702.643L928.496 771.084L999.279 774.812Z" stroke="#D7F4E1" stroke-opacity="0.02" stroke-width="3.5" stroke-linecap="round" stroke-linejoin="round"/>
<path d="M459.637 283.455L400.207 322.065L329.417 318.35L388.855 279.728L459.637 283.455Z" stroke="#D7F4E1" stroke-opacity="0.02" stroke-width="3.5" stroke-linecap="round" stroke-linejoin="round"/>
<path d="M388.853 279.728L459.628 283.424L485.032 217.266L414.272 213.561L388.853 279.728Z" stroke="#D7F4E1" stroke-opacity="0.02" stroke-width="3.5" stroke-linecap="round" stroke-linejoin="round"/>
<path d="M359.198 168.942L333.812 235.11L388.882 279.714L414.271 213.563L359.198 168.942Z" stroke="#D7F4E1" stroke-opacity="0.02" stroke-width="3.5" stroke-linecap="round" stroke-linejoin="round"/>
<path d="M329.437 318.541L347.792 386.994L322.384 453.171L304.019 384.707L329.437 318.541Z" stroke="#D7F4E1" stroke-opacity="0.02" stroke-width="3.5" stroke-linecap="round" stroke-linejoin="round"/>
<path d="M304.023 384.705L329.41 318.537L274.34 273.933L248.95 340.084L304.023 384.705Z" stroke="#D7F4E1" stroke-opacity="0.02" stroke-width="3.5" stroke-linecap="round" stroke-linejoin="round"/>
<path d="M262.923 491.77L322.354 453.161L304.019 384.706L244.596 423.3L262.923 491.77Z" stroke="#D7F4E1" stroke-opacity="0.02" stroke-width="3.5" stroke-linecap="round" stroke-linejoin="round"/>
<path d="M189.491 378.675L244.576 423.266L304.015 384.675L248.947 340.086L189.491 378.675Z" stroke="#D7F4E1" stroke-opacity="0.02" stroke-width="3.5" stroke-linecap="round" stroke-linejoin="round"/>
<path d="M322.23 453.189L393.005 456.886L448.092 501.5L377.303 497.81L322.23 453.189Z" stroke="#D7F4E1" stroke-opacity="0.02" stroke-width="3.5" stroke-linecap="round" stroke-linejoin="round"/>
<path d="M377.305 497.81L322.219 453.219L262.781 491.81L317.849 536.399L377.305 497.81Z" stroke="#D7F4E1" stroke-opacity="0.02" stroke-width="3.5" stroke-linecap="round" stroke-linejoin="round"/>
<path d="M466.431 569.979L448.076 501.526L377.306 497.81L395.649 566.251L466.431 569.979Z" stroke="#D7F4E1" stroke-opacity="0.02" stroke-width="3.5" stroke-linecap="round" stroke-linejoin="round"/>
<path d="M336.179 604.869L395.61 566.259L377.275 497.805L317.852 536.399L336.179 604.869Z" stroke="#D7F4E1" stroke-opacity="0.02" stroke-width="3.5" stroke-linecap="round" stroke-linejoin="round"/>
<path d="M274.6 273.627L329.685 318.218L389.123 279.627L334.055 235.038L274.6 273.627Z" stroke="#D7F4E1" stroke-opacity="0.02" stroke-width="3.5" stroke-linecap="round" stroke-linejoin="round"/>
<path d="M868.972 809.669L850.642 741.21L795.549 696.603L813.877 765.077L868.972 809.669Z" stroke="#D7F4E1" stroke-opacity="0.02" stroke-width="3.5" stroke-linecap="round" stroke-linejoin="round"/>
<path d="M788.61 831.266L814.02 765.106L795.668 696.636L770.247 762.805L788.61 831.266Z" stroke="#D7F4E1" stroke-opacity="0.02" stroke-width="3.5" stroke-linecap="round" stroke-linejoin="round"/>
<path d="M381.389 674.638L440.833 636.05L466.233 569.869L406.773 608.459L381.389 674.638Z" stroke="#D7F4E1" stroke-opacity="0.02" stroke-width="3.5" stroke-linecap="round" stroke-linejoin="round"/>
<path d="M336.014 604.886L406.788 608.608L466.236 569.996L395.45 566.267L336.014 604.886Z" stroke="#D7F4E1" stroke-opacity="0.02" stroke-width="3.5" stroke-linecap="round" stroke-linejoin="round"/>
<path d="M358.559 169.031L413.628 213.642L484.418 217.347L429.343 172.723L358.559 169.031Z" stroke="#D7F4E1" stroke-opacity="0.02" stroke-width="3.5" stroke-linecap="round" stroke-linejoin="round"/>
<path d="M410.877 104.324L429.208 172.784L484.301 217.391L465.973 148.916L410.877 104.324Z" stroke="#D7F4E1" stroke-opacity="0.02" stroke-width="3.5" stroke-linecap="round" stroke-linejoin="round"/>
<path d="M832.704 -8.60125L807.294 57.5582L825.645 126.029L851.066 59.8593L832.704 -8.60125Z" stroke="#D7F4E1" stroke-opacity="0.02" stroke-width="3.5" stroke-linecap="round" stroke-linejoin="round"/>
<path d="M910.411 21.1604L850.967 59.7492L825.567 125.93L885.027 87.3396L910.411 21.1604Z" stroke="#D7F4E1" stroke-opacity="0.02" stroke-width="3.5" stroke-linecap="round" stroke-linejoin="round"/>
<path d="M1148.35 387.681L1077.58 383.96L1018.13 422.572L1088.92 426.301L1148.35 387.681Z" stroke="#D7F4E1" stroke-opacity="0.02" stroke-width="3.5" stroke-linecap="round" stroke-linejoin="round"/>
<path d="M1144.06 470.781L1088.99 426.17L1018.2 422.465L1073.28 467.089L1144.06 470.781Z" stroke="#D7F4E1" stroke-opacity="0.02" stroke-width="3.5" stroke-linecap="round" stroke-linejoin="round"/>
<path d="M340.212 100.553L365.598 34.3842L310.529 -10.2196L285.139 55.932L340.212 100.553Z" stroke="#D7F4E1" stroke-opacity="0.02" stroke-width="3.5" stroke-linecap="round" stroke-linejoin="round"/>
<path d="M340.209 100.553L410.984 104.25L436.387 38.0921L365.627 34.3871L340.209 100.553Z" stroke="#D7F4E1" stroke-opacity="0.02" stroke-width="3.5" stroke-linecap="round" stroke-linejoin="round"/>
<path d="M340.174 100.519L358.528 168.972L429.298 172.688L410.956 104.247L340.174 100.519Z" stroke="#D7F4E1" stroke-opacity="0.02" stroke-width="3.5" stroke-linecap="round" stroke-linejoin="round"/>
<path d="M299.075 207.584L358.506 168.974L340.171 100.52L280.747 139.114L299.075 207.584Z" stroke="#D7F4E1" stroke-opacity="0.02" stroke-width="3.5" stroke-linecap="round" stroke-linejoin="round"/>
<path d="M225.682 94.5219L280.767 139.113L340.205 100.522L285.137 55.9329L225.682 94.5219Z" stroke="#D7F4E1" stroke-opacity="0.02" stroke-width="3.5" stroke-linecap="round" stroke-linejoin="round"/>
<path d="M310.602 671.05L335.988 604.882L280.918 560.278L255.529 626.43L310.602 671.05Z" stroke="#D7F4E1" stroke-opacity="0.02" stroke-width="3.5" stroke-linecap="round" stroke-linejoin="round"/>
<path d="M310.599 671.051L381.373 674.748L406.777 608.59L336.017 604.885L310.599 671.051Z" stroke="#D7F4E1" stroke-opacity="0.02" stroke-width="3.5" stroke-linecap="round" stroke-linejoin="round"/>
<path d="M310.558 671.016L328.913 739.47L399.683 743.186L381.341 674.744L310.558 671.016Z" stroke="#D7F4E1" stroke-opacity="0.02" stroke-width="3.5" stroke-linecap="round" stroke-linejoin="round"/>
<path d="M269.459 778.083L328.889 739.473L310.554 671.019L251.131 709.613L269.459 778.083Z" stroke="#D7F4E1" stroke-opacity="0.02" stroke-width="3.5" stroke-linecap="round" stroke-linejoin="round"/>
<path d="M196.07 665.02L251.156 709.611L310.594 671.02L255.526 626.431L196.07 665.02Z" stroke="#D7F4E1" stroke-opacity="0.02" stroke-width="3.5" stroke-linecap="round" stroke-linejoin="round"/>
<path d="M843.557 875.85L868.943 809.681L813.873 765.077L788.484 831.229L843.557 875.85Z" stroke="#D7F4E1" stroke-opacity="0.02" stroke-width="3.5" stroke-linecap="round" stroke-linejoin="round"/>
<path d="M843.56 875.85L914.334 879.546L939.738 813.389L868.978 809.684L843.56 875.85Z" stroke="#D7F4E1" stroke-opacity="0.02" stroke-width="3.5" stroke-linecap="round" stroke-linejoin="round"/>
<path d="M1203.53 432.22L1228.91 366.051L1173.84 321.447L1148.45 387.599L1203.53 432.22Z" stroke="#D7F4E1" stroke-opacity="0.02" stroke-width="3.5" stroke-linecap="round" stroke-linejoin="round"/>
<path d="M1203.52 432.221L1274.3 435.918L1299.7 369.76L1228.94 366.055L1203.52 432.221Z" stroke="#D7F4E1" stroke-opacity="0.02" stroke-width="3.5" stroke-linecap="round" stroke-linejoin="round"/>
<path d="M1203.48 432.186L1221.84 500.639L1292.61 504.356L1274.27 435.914L1203.48 432.186Z" stroke="#D7F4E1" stroke-opacity="0.02" stroke-width="3.5" stroke-linecap="round" stroke-linejoin="round"/>
<path d="M1162.39 539.251L1221.82 500.641L1203.49 432.187L1144.06 470.781L1162.39 539.251Z" stroke="#D7F4E1" stroke-opacity="0.02" stroke-width="3.5" stroke-linecap="round" stroke-linejoin="round"/>
<path d="M1089 426.188L1144.08 470.779L1203.52 432.188L1148.45 387.599L1089 426.188Z" stroke="#D7F4E1" stroke-opacity="0.02" stroke-width="3.5" stroke-linecap="round" stroke-linejoin="round"/>
<path d="M892.064 -47.3146L910.419 21.1385L981.189 24.8546L962.847 -43.5868L892.064 -47.3146Z" stroke="#D7F4E1" stroke-opacity="0.02" stroke-width="3.5" stroke-linecap="round" stroke-linejoin="round"/>
<path d="M850.965 59.7504L910.396 21.1407L892.061 -47.3138L832.638 -8.71964L850.965 59.7504Z" stroke="#D7F4E1" stroke-opacity="0.02" stroke-width="3.5" stroke-linecap="round" stroke-linejoin="round"/>
<path d="M1028.83 885.576L1054.22 819.407L999.146 774.803L973.756 840.955L1028.83 885.576Z" stroke="#D7F4E1" stroke-opacity="0.02" stroke-width="3.5" stroke-linecap="round" stroke-linejoin="round"/>
<path d="M1028.83 885.574L1099.6 889.271L1125.01 823.113L1054.25 819.408L1028.83 885.574Z" stroke="#D7F4E1" stroke-opacity="0.02" stroke-width="3.5" stroke-linecap="round" stroke-linejoin="round"/>
<path d="M1251.52 611.411L1276.91 545.242L1221.84 500.638L1196.45 566.79L1251.52 611.411Z" stroke="#D7F4E1" stroke-opacity="0.02" stroke-width="3.5" stroke-linecap="round" stroke-linejoin="round"/>
<path d="M1251.52 611.411L1322.3 615.107L1347.7 548.95L1276.94 545.245L1251.52 611.411Z" stroke="#D7F4E1" stroke-opacity="0.02" stroke-width="3.5" stroke-linecap="round" stroke-linejoin="round"/>
<path d="M1251.48 611.377L1269.84 679.83L1340.61 683.546L1322.27 615.105L1251.48 611.377Z" stroke="#D7F4E1" stroke-opacity="0.02" stroke-width="3.5" stroke-linecap="round" stroke-linejoin="round"/>
<path d="M1210.38 718.441L1269.82 679.832L1251.48 611.377L1192.06 649.971L1210.38 718.441Z" stroke="#D7F4E1" stroke-opacity="0.02" stroke-width="3.5" stroke-linecap="round" stroke-linejoin="round"/>
<path d="M1136.99 605.38L1192.08 649.971L1251.51 611.38L1196.45 566.791L1136.99 605.38Z" stroke="#D7F4E1" stroke-opacity="0.02" stroke-width="3.5" stroke-linecap="round" stroke-linejoin="round"/>
<path d="M1269.87 258.761L1295.26 192.592L1240.19 147.988L1214.8 214.14L1269.87 258.761Z" stroke="#D7F4E1" stroke-opacity="0.02" stroke-width="3.5" stroke-linecap="round" stroke-linejoin="round"/>
<path d="M1269.87 258.762L1340.64 262.458L1366.05 196.301L1295.29 192.596L1269.87 258.762Z" stroke="#D7F4E1" stroke-opacity="0.02" stroke-width="3.5" stroke-linecap="round" stroke-linejoin="round"/>
<path d="M1269.83 258.727L1288.19 327.181L1358.96 330.897L1340.62 262.455L1269.83 258.727Z" stroke="#D7F4E1" stroke-opacity="0.02" stroke-width="3.5" stroke-linecap="round" stroke-linejoin="round"/>
<path d="M1228.73 365.791L1288.17 327.182L1269.83 258.727L1210.41 297.321L1228.73 365.791Z" stroke="#D7F4E1" stroke-opacity="0.02" stroke-width="3.5" stroke-linecap="round" stroke-linejoin="round"/>
<path d="M1155.34 252.729L1210.43 297.32L1269.86 258.729L1214.8 214.14L1155.34 252.729Z" stroke="#D7F4E1" stroke-opacity="0.02" stroke-width="3.5" stroke-linecap="round" stroke-linejoin="round"/>
<path d="M1077.36 -37.5841L1095.72 30.869L1166.49 34.5851L1148.15 -33.8563L1077.36 -37.5841Z" stroke="#D7F4E1" stroke-opacity="0.02" stroke-width="3.5" stroke-linecap="round" stroke-linejoin="round"/>
<path d="M1036.27 69.4789L1095.7 30.8692L1077.36 -37.5853L1017.94 1.00887L1036.27 69.4789Z" stroke="#D7F4E1" stroke-opacity="0.02" stroke-width="3.5" stroke-linecap="round" stroke-linejoin="round"/>
<path d="M962.874 -43.5836L1017.96 1.00744L1077.4 -37.5836L1022.33 -82.1726L962.874 -43.5836Z" stroke="#D7F4E1" stroke-opacity="0.02" stroke-width="3.5" stroke-linecap="round" stroke-linejoin="round"/>
<path d="M406.726 -72.6774L425.081 -4.22428L495.851 -0.508189L477.509 -68.9496L406.726 -72.6774Z" stroke="#D7F4E1" stroke-opacity="0.02" stroke-width="3.5" stroke-linecap="round" stroke-linejoin="round"/>
<path d="M365.631 34.3866L425.062 -4.22308L406.727 -72.6775L347.304 -34.0834L365.631 34.3866Z" stroke="#D7F4E1" stroke-opacity="0.02" stroke-width="3.5" stroke-linecap="round" stroke-linejoin="round"/>
<path d="M184.568 201.576L209.955 135.407L154.885 90.8033L129.495 156.955L184.568 201.576Z" stroke="#D7F4E1" stroke-opacity="0.02" stroke-width="3.5" stroke-linecap="round" stroke-linejoin="round"/>
<path d="M184.573 201.574L255.348 205.271L280.751 139.113L209.992 135.408L184.573 201.574Z" stroke="#D7F4E1" stroke-opacity="0.02" stroke-width="3.5" stroke-linecap="round" stroke-linejoin="round"/>
<path d="M184.53 201.543L202.885 269.996L273.655 273.713L255.312 205.271L184.53 201.543Z" stroke="#D7F4E1" stroke-opacity="0.02" stroke-width="3.5" stroke-linecap="round" stroke-linejoin="round"/>
<path d="M143.434 308.606L202.865 269.996L184.53 201.542L125.107 240.136L143.434 308.606Z" stroke="#D7F4E1" stroke-opacity="0.02" stroke-width="3.5" stroke-linecap="round" stroke-linejoin="round"/>
<path d="M70.0421 195.544L125.127 240.135L184.566 201.544L129.497 156.955L70.0421 195.544Z" stroke="#D7F4E1" stroke-opacity="0.02" stroke-width="3.5" stroke-linecap="round" stroke-linejoin="round"/>
<path d="M166.747 554.231L192.133 488.063L137.064 443.459L111.674 509.611L166.747 554.231Z" stroke="#D7F4E1" stroke-opacity="0.02" stroke-width="3.5" stroke-linecap="round" stroke-linejoin="round"/>
<path d="M166.743 554.233L237.518 557.93L262.921 491.772L192.161 488.067L166.743 554.233Z" stroke="#D7F4E1" stroke-opacity="0.02" stroke-width="3.5" stroke-linecap="round" stroke-linejoin="round"/>
<path d="M166.707 554.197L185.062 622.65L255.831 626.366L237.489 557.925L166.707 554.197Z" stroke="#D7F4E1" stroke-opacity="0.02" stroke-width="3.5" stroke-linecap="round" stroke-linejoin="round"/>
<path d="M125.614 661.261L185.045 622.651L166.71 554.196L107.286 592.791L125.614 661.261Z" stroke="#D7F4E1" stroke-opacity="0.02" stroke-width="3.5" stroke-linecap="round" stroke-linejoin="round"/>
<path d="M52.2199 548.199L107.305 592.79L166.743 554.199L111.675 509.61L52.2199 548.199Z" stroke="#D7F4E1" stroke-opacity="0.02" stroke-width="3.5" stroke-linecap="round" stroke-linejoin="round"/>
<path d="M358.574 850.243L383.961 784.075L328.891 739.471L303.501 805.622L358.574 850.243Z" stroke="#D7F4E1" stroke-opacity="0.02" stroke-width="3.5" stroke-linecap="round" stroke-linejoin="round"/>
<path d="M358.576 850.244L429.351 853.94L454.754 787.783L383.994 784.078L358.576 850.244Z" stroke="#D7F4E1" stroke-opacity="0.02" stroke-width="3.5" stroke-linecap="round" stroke-linejoin="round"/>
<path d="M358.536 850.21L376.891 918.663L447.661 922.379L429.318 853.938L358.536 850.21Z" stroke="#D7F4E1" stroke-opacity="0.02" stroke-width="3.5" stroke-linecap="round" stroke-linejoin="round"/>
<path d="M244.048 844.211L299.133 888.802L358.571 850.211L303.503 805.622L244.048 844.211Z" stroke="#D7F4E1" stroke-opacity="0.02" stroke-width="3.5" stroke-linecap="round" stroke-linejoin="round"/>
<path d="M118.016 374.773L143.402 308.605L88.3322 264.001L62.9426 330.153L118.016 374.773Z" stroke="#D7F4E1" stroke-opacity="0.02" stroke-width="3.5" stroke-linecap="round" stroke-linejoin="round"/>
<path d="M118.018 374.774L188.792 378.471L214.196 312.313L143.436 308.608L118.018 374.774Z" stroke="#D7F4E1" stroke-opacity="0.02" stroke-width="3.5" stroke-linecap="round" stroke-linejoin="round"/>
<path d="M117.973 374.741L136.328 443.194L207.098 446.91L188.756 378.469L117.973 374.741Z" stroke="#D7F4E1" stroke-opacity="0.02" stroke-width="3.5" stroke-linecap="round" stroke-linejoin="round"/>
<path d="M76.8804 481.805L136.311 443.195L117.976 374.74L58.5528 413.335L76.8804 481.805Z" stroke="#D7F4E1" stroke-opacity="0.02" stroke-width="3.5" stroke-linecap="round" stroke-linejoin="round"/>
<path d="M1221.56 79.2055L1246.95 13.037L1191.88 -31.5668L1166.49 34.5848L1221.56 79.2055Z" stroke="#D7F4E1" stroke-opacity="0.02" stroke-width="3.5" stroke-linecap="round" stroke-linejoin="round"/>
<path d="M1221.52 79.1737L1239.88 147.627L1310.65 151.343L1292.31 82.9015L1221.52 79.1737Z" stroke="#D7F4E1" stroke-opacity="0.02" stroke-width="3.5" stroke-linecap="round" stroke-linejoin="round"/>
<path d="M1180.43 186.238L1239.86 147.628L1221.52 79.1735L1162.1 117.768L1180.43 186.238Z" stroke="#D7F4E1" stroke-opacity="0.02" stroke-width="3.5" stroke-linecap="round" stroke-linejoin="round"/>
<path d="M1107.04 73.1738L1162.12 117.765L1221.56 79.1737L1166.49 34.5847L1107.04 73.1738Z" stroke="#D7F4E1" stroke-opacity="0.02" stroke-width="3.5" stroke-linecap="round" stroke-linejoin="round"/>
<path d="M1184.45 784.555L1209.83 718.386L1154.76 673.782L1129.38 739.934L1184.45 784.555Z" stroke="#D7F4E1" stroke-opacity="0.02" stroke-width="3.5" stroke-linecap="round" stroke-linejoin="round"/>
<path d="M1184.45 784.554L1255.22 788.251L1280.63 722.093L1209.87 718.388L1184.45 784.554Z" stroke="#D7F4E1" stroke-opacity="0.02" stroke-width="3.5" stroke-linecap="round" stroke-linejoin="round"/>
<path d="M1143.32 891.585L1202.75 852.975L1184.41 784.521L1124.99 823.115L1143.32 891.585Z" stroke="#D7F4E1" stroke-opacity="0.02" stroke-width="3.5" stroke-linecap="round" stroke-linejoin="round"/>
<path d="M1069.92 778.522L1125.01 823.113L1184.45 784.522L1129.38 739.933L1069.92 778.522Z" stroke="#D7F4E1" stroke-opacity="0.02" stroke-width="3.5" stroke-linecap="round" stroke-linejoin="round"/>
<path d="M1240.19 148.005L1214.8 214.173L1155.35 252.777L1180.74 186.594L1240.19 148.005Z" stroke="#D7F4E1" stroke-opacity="0.02" stroke-width="3.5" stroke-linecap="round" stroke-linejoin="round"/>
<path d="M963.117 -43.2303L1018.2 1.36066L1036.54 69.8337L981.445 25.2397L963.117 -43.2303Z" stroke="#D7F4E1" stroke-opacity="0.02" stroke-width="3.5" stroke-linecap="round" stroke-linejoin="round"/>
<path d="M1155.51 252.991L1210.6 297.582L1228.94 366.055L1173.84 321.461L1155.51 252.991Z" stroke="#D7F4E1" stroke-opacity="0.02" stroke-width="3.5" stroke-linecap="round" stroke-linejoin="round"/>
<path d="M1155.41 253.052L1130 319.212L1148.35 387.682L1173.77 321.513L1155.41 253.052Z" stroke="#D7F4E1" stroke-opacity="0.02" stroke-width="3.5" stroke-linecap="round" stroke-linejoin="round"/>
<path d="M1162.57 118.36L1137.17 184.519L1155.52 252.99L1180.94 186.82L1162.57 118.36Z" stroke="#D7F4E1" stroke-opacity="0.02" stroke-width="3.5" stroke-linecap="round" stroke-linejoin="round"/>
<path d="M1036.25 69.4469L1095.68 30.8372L1166.47 34.5519L1107.03 73.1746L1036.25 69.4469Z" stroke="#D7F4E1" stroke-opacity="0.02" stroke-width="3.5" stroke-linecap="round" stroke-linejoin="round"/>
<path d="M1036.71 70.0477L1107.49 73.7443L1162.58 118.359L1091.79 114.668L1036.71 70.0477Z" stroke="#D7F4E1" stroke-opacity="0.02" stroke-width="3.5" stroke-linecap="round" stroke-linejoin="round"/>
<path d="M910.8 21.3924L981.574 25.089L1036.66 69.7035L965.873 66.0131L910.8 21.3924Z" stroke="#D7F4E1" stroke-opacity="0.02" stroke-width="3.5" stroke-linecap="round" stroke-linejoin="round"/>
<path d="M1125.73 822.988L1054.95 819.291L999.868 774.677L1070.66 778.367L1125.73 822.988Z" stroke="#D7F4E1" stroke-opacity="0.02" stroke-width="3.5" stroke-linecap="round" stroke-linejoin="round"/>
<path d="M1221.98 500.379L1196.6 566.548L1137.14 605.151L1162.53 538.968L1221.98 500.379Z" stroke="#D7F4E1" stroke-opacity="0.02" stroke-width="3.5" stroke-linecap="round" stroke-linejoin="round"/>
<path d="M999.72 774.9L974.334 841.068L914.88 879.672L940.265 813.489L999.72 774.9Z" stroke="#D7F4E1" stroke-opacity="0.02" stroke-width="3.5" stroke-linecap="round" stroke-linejoin="round"/>
<path d="M999.63 774.82L928.857 771.099L869.408 809.711L940.195 813.44L999.63 774.82Z" stroke="#D7F4E1" stroke-opacity="0.02" stroke-width="3.5" stroke-linecap="round" stroke-linejoin="round"/>
<path d="M1129.94 740.009L1059.17 736.287L999.719 774.899L1070.51 778.628L1129.94 740.009Z" stroke="#D7F4E1" stroke-opacity="0.02" stroke-width="3.5" stroke-linecap="round" stroke-linejoin="round"/>
<path d="M1137.43 604.755L1192.51 649.346L1210.85 717.819L1155.75 673.225L1137.43 604.755Z" stroke="#D7F4E1" stroke-opacity="0.02" stroke-width="3.5" stroke-linecap="round" stroke-linejoin="round"/>
<path d="M1137 605.379L1155.35 673.832L1129.94 740.009L1111.58 671.545L1137 605.379Z" stroke="#D7F4E1" stroke-opacity="0.02" stroke-width="3.5" stroke-linecap="round" stroke-linejoin="round"/>
<path d="M1144.36 470.596L1162.72 539.049L1137.31 605.226L1118.94 536.762L1144.36 470.596Z" stroke="#D7F4E1" stroke-opacity="0.02" stroke-width="3.5" stroke-linecap="round" stroke-linejoin="round"/>
<path d="M448.235 922.59L429.88 854.137L455.288 787.96L473.653 856.424L448.235 922.59Z" stroke="#D7F4E1" stroke-opacity="0.02" stroke-width="3.5" stroke-linecap="round" stroke-linejoin="round"/>
<path d="M455.026 787.885L384.251 784.189L329.164 739.574L399.952 743.265L455.026 787.885Z" stroke="#D7F4E1" stroke-opacity="0.02" stroke-width="3.5" stroke-linecap="round" stroke-linejoin="round"/>
<path d="M455.075 787.775L436.744 719.316L381.652 674.709L399.979 743.183L455.075 787.775Z" stroke="#D7F4E1" stroke-opacity="0.02" stroke-width="3.5" stroke-linecap="round" stroke-linejoin="round"/>
<path d="M528.447 900.953L510.116 832.493L455.024 787.886L473.351 856.36L528.447 900.953Z" stroke="#D7F4E1" stroke-opacity="0.02" stroke-width="3.5" stroke-linecap="round" stroke-linejoin="round"/>
<path d="M789.132 831.41L729.702 870.02L658.912 866.305L718.35 827.682L789.132 831.41Z" stroke="#D7F4E1" stroke-opacity="0.02" stroke-width="3.5" stroke-linecap="round" stroke-linejoin="round"/>
<path d="M144.389 308.792L203.82 270.182L274.61 273.897L215.171 312.519L144.389 308.792Z" stroke="#D7F4E1" stroke-opacity="0.02" stroke-width="3.5" stroke-linecap="round" stroke-linejoin="round"/>
<path d="M256.14 626.365L237.785 557.912L263.193 491.734L281.558 560.198L256.14 626.365Z" stroke="#D7F4E1" stroke-opacity="0.02" stroke-width="3.5" stroke-linecap="round" stroke-linejoin="round"/>
<path d="M274.6 273.627L256.245 205.174L281.653 138.997L300.018 207.461L274.6 273.627Z" stroke="#D7F4E1" stroke-opacity="0.02" stroke-width="3.5" stroke-linecap="round" stroke-linejoin="round"/>
<path d="M274.715 273.64L334.159 235.052L359.559 168.871L300.099 207.461L274.715 273.64Z" stroke="#D7F4E1" stroke-opacity="0.02" stroke-width="3.5" stroke-linecap="round" stroke-linejoin="round"/>
<path d="M189.755 378.398L249.199 339.809L274.599 273.628L215.139 312.219L189.755 378.398Z" stroke="#D7F4E1" stroke-opacity="0.02" stroke-width="3.5" stroke-linecap="round" stroke-linejoin="round"/>
<path d="M263.204 492.218L192.43 488.521L137.343 443.907L208.131 447.597L263.204 492.218Z" stroke="#D7F4E1" stroke-opacity="0.02" stroke-width="3.5" stroke-linecap="round" stroke-linejoin="round"/>
<path d="M263.185 491.461L208.1 446.87L189.757 378.397L244.857 422.991L263.185 491.461Z" stroke="#D7F4E1" stroke-opacity="0.02" stroke-width="3.5" stroke-linecap="round" stroke-linejoin="round"/>
<path d="M336.448 604.833L281.363 560.242L263.021 491.769L318.121 536.363L336.448 604.833Z" stroke="#D7F4E1" stroke-opacity="0.02" stroke-width="3.5" stroke-linecap="round" stroke-linejoin="round"/>
<path d="M366.091 34.2306L425.522 -4.3791L496.312 -0.664415L436.874 37.9583L366.091 34.2306Z" stroke="#D7F4E1" stroke-opacity="0.02" stroke-width="3.5" stroke-linecap="round" stroke-linejoin="round"/>
<path d="M707.292 -57.1009L762.361 -12.4905L833.152 -8.78534L778.076 -53.4095L707.292 -57.1009Z" stroke="#D7F4E1" stroke-opacity="0.02" stroke-width="3.5" stroke-linecap="round" stroke-linejoin="round"/>
<path d="M495.851 -0.508962L477.496 -68.962L502.904 -135.139L521.269 -66.6751L495.851 -0.508962Z" stroke="#D7F4E1" stroke-opacity="0.02" stroke-width="3.5" stroke-linecap="round" stroke-linejoin="round"/>
<path d="M496.565 -0.759962L521.951 -66.9284L581.405 -105.532L556.02 -39.349L496.565 -0.759962Z" stroke="#D7F4E1" stroke-opacity="0.02" stroke-width="3.5" stroke-linecap="round" stroke-linejoin="round"/>
<path d="M411.383 103.954L436.769 37.7855L496.222 -0.818484L470.838 65.3649L411.383 103.954Z" stroke="#D7F4E1" stroke-opacity="0.02" stroke-width="3.5" stroke-linecap="round" stroke-linejoin="round"/>
<path d="M1310.9 832.905L1255.83 788.295L1185.04 784.59L1240.12 829.214L1310.9 832.905Z" stroke="#D7F4E1" stroke-opacity="0.02" stroke-width="3.5" stroke-linecap="round" stroke-linejoin="round"/>
<path d="M1258.45 897.673L1240.12 829.214L1185.02 784.606L1203.35 853.081L1258.45 897.673Z" stroke="#D7F4E1" stroke-opacity="0.02" stroke-width="3.5" stroke-linecap="round" stroke-linejoin="round"/>
<path d="M1329.23 901.401L1310.88 832.947L1240.11 829.231L1258.45 897.673L1329.23 901.401Z" stroke="#D7F4E1" stroke-opacity="0.02" stroke-width="3.5" stroke-linecap="round" stroke-linejoin="round"/>
<path d="M1310.91 832.915L1336.29 766.747L1281.22 722.143L1255.83 788.295L1310.91 832.915Z" stroke="#D7F4E1" stroke-opacity="0.02" stroke-width="3.5" stroke-linecap="round" stroke-linejoin="round"/>
<path d="M1395.69 728.137L1340.61 683.546L1281.17 722.137L1336.24 766.726L1395.69 728.137Z" stroke="#D7F4E1" stroke-opacity="0.02" stroke-width="3.5" stroke-linecap="round" stroke-linejoin="round"/>
<path d="M1329.23 901.375L1388.66 862.766L1370.33 794.311L1310.9 832.905L1329.23 901.375Z" stroke="#D7F4E1" stroke-opacity="0.02" stroke-width="3.5" stroke-linecap="round" stroke-linejoin="round"/>
<path d="M1388.68 862.764L1370.33 794.311L1395.73 728.134L1414.1 796.598L1388.68 862.764Z" stroke="#D7F4E1" stroke-opacity="0.02" stroke-width="3.5" stroke-linecap="round" stroke-linejoin="round"/>
<path d="M1310.85 832.895L1336.24 766.727L1395.69 728.123L1370.31 794.306L1310.85 832.895Z" stroke="#D7F4E1" stroke-opacity="0.02" stroke-width="3.5" stroke-linecap="round" stroke-linejoin="round"/>
<path d="M-11.5434 409.906L59.23 413.628L118.678 375.016L47.8921 371.287L-11.5434 409.906Z" stroke="#D7F4E1" stroke-opacity="0.02" stroke-width="3.5" stroke-linecap="round" stroke-linejoin="round"/>
<path d="M-7.17762 326.676L47.8917 371.287L118.682 374.992L63.6067 330.368L-7.17762 326.676Z" stroke="#D7F4E1" stroke-opacity="0.02" stroke-width="3.5" stroke-linecap="round" stroke-linejoin="round"/>
<path d="M-66.6307 365.265L-11.5456 409.856L47.8927 371.264L-7.17539 326.676L-66.6307 365.265Z" stroke="#D7F4E1" stroke-opacity="0.02" stroke-width="3.5" stroke-linecap="round" stroke-linejoin="round"/>
<path d="M-11.5511 409.9L6.80383 478.353L77.5737 482.069L59.2314 413.628L-11.5511 409.9Z" stroke="#D7F4E1" stroke-opacity="0.02" stroke-width="3.5" stroke-linecap="round" stroke-linejoin="round"/>
<path d="M-7.17582 326.674L63.5989 330.371L89.0022 264.213L18.2425 260.508L-7.17582 326.674Z" stroke="#D7F4E1" stroke-opacity="0.02" stroke-width="3.5" stroke-linecap="round" stroke-linejoin="round"/>
<path d="M70.8132 195.41L125.898 240.001L144.241 308.474L89.1409 263.88L70.8132 195.41Z" stroke="#D7F4E1" stroke-opacity="0.02" stroke-width="3.5" stroke-linecap="round" stroke-linejoin="round"/>
<path d="M52.2195 548.2L77.6057 482.031L137.059 443.427L111.675 509.61L52.2195 548.2Z" stroke="#D7F4E1" stroke-opacity="0.02" stroke-width="3.5" stroke-linecap="round" stroke-linejoin="round"/>
<path d="M-18.5547 544.503L52.22 548.199L77.6233 482.041L6.86359 478.336L-18.5547 544.503Z" stroke="#D7F4E1" stroke-opacity="0.02" stroke-width="3.5" stroke-linecap="round" stroke-linejoin="round"/>
<path d="M0.0319492 191.682L18.3868 260.136L89.1567 263.852L70.8144 195.41L0.0319492 191.682Z" stroke="#D7F4E1" stroke-opacity="0.02" stroke-width="3.5" stroke-linecap="round" stroke-linejoin="round"/>
<path d="M-66.6162 365.285L-92.0025 431.453L-36.9328 476.057L-11.5432 409.905L-66.6162 365.285Z" stroke="#D7F4E1" stroke-opacity="0.02" stroke-width="3.5" stroke-linecap="round" stroke-linejoin="round"/>
<path d="M-25.5357 258.202L-84.9665 296.811L-66.6316 365.266L-7.20808 326.672L-25.5357 258.202Z" stroke="#D7F4E1" stroke-opacity="0.02" stroke-width="3.5" stroke-linecap="round" stroke-linejoin="round"/>
<path d="M0.0288861 191.683L18.3838 260.136L-7.02438 326.313L-25.3894 257.849L0.0288861 191.683Z" stroke="#D7F4E1" stroke-opacity="0.02" stroke-width="3.5" stroke-linecap="round" stroke-linejoin="round"/>
<path d="M-11.4965 409.885L6.85837 478.338L-18.5498 544.515L-36.9148 476.051L-11.4965 409.885Z" stroke="#D7F4E1" stroke-opacity="0.02" stroke-width="3.5" stroke-linecap="round" stroke-linejoin="round"/>
<path d="M-92.0149 431.466L-36.9298 476.057L-18.5874 544.53L-73.6872 499.936L-92.0149 431.466Z" stroke="#D7F4E1" stroke-opacity="0.02" stroke-width="3.5" stroke-linecap="round" stroke-linejoin="round"/>
<path d="M0.000257374 191.679L-25.386 257.848L-84.8397 296.452L-59.455 230.268L0.000257374 191.679Z" stroke="#D7F4E1" stroke-opacity="0.02" stroke-width="3.5" stroke-linecap="round" stroke-linejoin="round"/>
<path d="M1306.26 -26.0041L1246.82 12.5846L1221.42 78.7652L1280.88 40.175L1306.26 -26.0041Z" stroke="#D7F4E1" stroke-opacity="0.02" stroke-width="3.5" stroke-linecap="round" stroke-linejoin="round"/>
<path d="M1351.65 43.8985L1280.88 40.177L1221.43 78.7889L1292.22 82.5181L1351.65 43.8985Z" stroke="#D7F4E1" stroke-opacity="0.02" stroke-width="3.5" stroke-linecap="round" stroke-linejoin="round"/>
<path d="M1377.07 -22.2686L1306.3 -25.9653L1280.89 40.1925L1351.65 43.8975L1377.07 -22.2686Z" stroke="#D7F4E1" stroke-opacity="0.02" stroke-width="3.5" stroke-linecap="round" stroke-linejoin="round"/>
<path d="M1306.28 -26.0043L1251.19 -70.5953L1191.75 -32.0042L1246.82 12.5847L1306.28 -26.0043Z" stroke="#D7F4E1" stroke-opacity="0.02" stroke-width="3.5" stroke-linecap="round" stroke-linejoin="round"/>
<path d="M1351.65 43.8975L1292.22 82.5072L1310.56 150.962L1369.98 112.368L1351.65 43.8975Z" stroke="#D7F4E1" stroke-opacity="0.02" stroke-width="3.5" stroke-linecap="round" stroke-linejoin="round"/>
<path d="M1365.72 195.93L1294.94 192.234L1239.86 147.619L1310.64 151.31L1365.72 195.93Z" stroke="#D7F4E1" stroke-opacity="0.02" stroke-width="3.5" stroke-linecap="round" stroke-linejoin="round"/>
<path d="M1173.4 -100.412L1191.75 -31.9594L1166.34 34.2178L1147.98 -34.2463L1173.4 -100.412Z" stroke="#D7F4E1" stroke-opacity="0.02" stroke-width="3.5" stroke-linecap="round" stroke-linejoin="round"/>
<path d="M1425.17 157.343L1370.09 112.752L1310.65 151.343L1365.72 195.932L1425.17 157.343Z" stroke="#D7F4E1" stroke-opacity="0.02" stroke-width="3.5" stroke-linecap="round" stroke-linejoin="round"/>
<path d="M1377.05 -22.2767L1358.69 -90.7298L1287.92 -94.4459L1306.26 -26.0045L1377.05 -22.2767Z" stroke="#D7F4E1" stroke-opacity="0.02" stroke-width="3.5" stroke-linecap="round" stroke-linejoin="round"/>
<path d="M1406.76 88.5029L1432.14 22.3344L1377.07 -22.2694L1351.68 43.8822L1406.76 88.5029Z" stroke="#D7F4E1" stroke-opacity="0.02" stroke-width="3.5" stroke-linecap="round" stroke-linejoin="round"/>
<path d="M1425.17 157.343L1370.09 112.752L1351.74 44.2791L1406.84 88.8731L1425.17 157.343Z" stroke="#D7F4E1" stroke-opacity="0.02" stroke-width="3.5" stroke-linecap="round" stroke-linejoin="round"/>
<path d="M1425.2 157.325L1406.84 88.872L1432.25 22.6947L1450.62 91.1589L1425.2 157.325Z" stroke="#D7F4E1" stroke-opacity="0.02" stroke-width="3.5" stroke-linecap="round" stroke-linejoin="round"/>
<path d="M1117.65 957.972L1099.3 889.518L1124.71 823.341L1143.07 891.805L1117.65 957.972Z" stroke="#D7F4E1" stroke-opacity="0.02" stroke-width="3.5" stroke-linecap="round" stroke-linejoin="round"/>
<path d="M1340.06 683.492L1280.62 722.101L1209.83 718.387L1269.27 679.764L1340.06 683.492Z" stroke="#D7F4E1" stroke-opacity="0.02" stroke-width="3.5" stroke-linecap="round" stroke-linejoin="round"/>
<path d="M1388.52 442.426L1333.44 397.835L1274 436.426L1329.07 481.015L1388.52 442.426Z" stroke="#D7F4E1" stroke-opacity="0.02" stroke-width="3.5" stroke-linecap="round" stroke-linejoin="round"/>
<path d="M1388.53 442.475L1413.92 376.306L1358.85 331.702L1333.46 397.854L1388.53 442.475Z" stroke="#D7F4E1" stroke-opacity="0.02" stroke-width="3.5" stroke-linecap="round" stroke-linejoin="round"/>
<path d="M1347.44 549.539L1406.87 510.93L1388.53 442.475L1329.11 481.069L1347.44 549.539Z" stroke="#D7F4E1" stroke-opacity="0.02" stroke-width="3.5" stroke-linecap="round" stroke-linejoin="round"/>
<path d="M1413.94 376.261L1432.29 444.714L1406.89 510.892L1388.52 442.428L1413.94 376.261Z" stroke="#D7F4E1" stroke-opacity="0.02" stroke-width="3.5" stroke-linecap="round" stroke-linejoin="round"/>
<path d="M1413.94 376.26L1432.29 444.713L1503.06 448.429L1484.72 379.987L1413.94 376.26Z" stroke="#D7F4E1" stroke-opacity="0.02" stroke-width="3.5" stroke-linecap="round" stroke-linejoin="round"/>
<path d="M1503.18 448.632L1432.41 444.936L1407.01 511.093L1477.77 514.798L1503.18 448.632Z" stroke="#D7F4E1" stroke-opacity="0.02" stroke-width="3.5" stroke-linecap="round" stroke-linejoin="round"/>
<path d="M1544.15 341.379L1484.72 379.989L1413.93 376.274L1473.37 337.652L1544.15 341.379Z" stroke="#D7F4E1" stroke-opacity="0.02" stroke-width="3.5" stroke-linecap="round" stroke-linejoin="round"/>
<path d="M1532.84 559.409L1477.77 514.799L1406.98 511.093L1462.05 555.718L1532.84 559.409Z" stroke="#D7F4E1" stroke-opacity="0.02" stroke-width="3.5" stroke-linecap="round" stroke-linejoin="round"/>
<path d="M1462.05 555.716L1406.96 511.125L1347.53 549.716L1402.59 594.305L1462.05 555.716Z" stroke="#D7F4E1" stroke-opacity="0.02" stroke-width="3.5" stroke-linecap="round" stroke-linejoin="round"/>
<path d="M1473.4 337.672L1418.31 293.081L1358.87 331.672L1413.94 376.261L1473.4 337.672Z" stroke="#D7F4E1" stroke-opacity="0.02" stroke-width="3.5" stroke-linecap="round" stroke-linejoin="round"/>
<path d="M1340.43 684.362L1322.08 615.909L1347.49 549.732L1365.85 618.196L1340.43 684.362Z" stroke="#D7F4E1" stroke-opacity="0.02" stroke-width="3.5" stroke-linecap="round" stroke-linejoin="round"/>
<path d="M1420.96 662.779L1365.87 618.188L1347.53 549.715L1402.63 594.309L1420.96 662.779Z" stroke="#D7F4E1" stroke-opacity="0.02" stroke-width="3.5" stroke-linecap="round" stroke-linejoin="round"/>
<path d="M1444.12 226.767L1418.74 292.935L1359.28 331.539L1384.67 265.356L1444.12 226.767Z" stroke="#D7F4E1" stroke-opacity="0.02" stroke-width="3.5" stroke-linecap="round" stroke-linejoin="round"/>
<path d="M1366.29 196.897L1384.65 265.35L1359.24 331.527L1340.88 263.063L1366.29 196.897Z" stroke="#D7F4E1" stroke-opacity="0.02" stroke-width="3.5" stroke-linecap="round" stroke-linejoin="round"/>
<path d="M1228.94 366.055L1288.37 327.445L1359.16 331.16L1299.72 369.783L1228.94 366.055Z" stroke="#D7F4E1" stroke-opacity="0.02" stroke-width="3.5" stroke-linecap="round" stroke-linejoin="round"/>
<path d="M1274.35 435.966L1299.74 369.798L1359.19 331.194L1333.81 397.377L1274.35 435.966Z" stroke="#D7F4E1" stroke-opacity="0.02" stroke-width="3.5" stroke-linecap="round" stroke-linejoin="round"/>
<path d="M1274.06 436.671L1329.14 481.262L1347.48 549.735L1292.39 505.141L1274.06 436.671Z" stroke="#D7F4E1" stroke-opacity="0.02" stroke-width="3.5" stroke-linecap="round" stroke-linejoin="round"/>
<path d="M1221.6 501.459L1292.38 505.155L1347.46 549.77L1276.68 546.079L1221.6 501.459Z" stroke="#D7F4E1" stroke-opacity="0.02" stroke-width="3.5" stroke-linecap="round" stroke-linejoin="round"/>
<path d="M195.856 -15.9694L214.211 52.4837L284.981 56.1998L266.639 -12.2416L195.856 -15.9694Z" stroke="#D7F4E1" stroke-opacity="0.02" stroke-width="3.5" stroke-linecap="round" stroke-linejoin="round"/>
<path d="M195.876 -16.0151L136.446 22.5947L154.78 91.0491L214.204 52.455L195.876 -16.0151Z" stroke="#D7F4E1" stroke-opacity="0.02" stroke-width="3.5" stroke-linecap="round" stroke-linejoin="round"/>
<path d="M292.057 -78.4776L221.282 -82.1742L195.879 -16.0164L266.638 -12.3115L292.057 -78.4776Z" stroke="#D7F4E1" stroke-opacity="0.02" stroke-width="3.5" stroke-linecap="round" stroke-linejoin="round"/>
<path d="M136.402 22.6194L161.788 -43.549L221.242 -82.153L195.857 -15.9696L136.402 22.6194Z" stroke="#D7F4E1" stroke-opacity="0.02" stroke-width="3.5" stroke-linecap="round" stroke-linejoin="round"/>
<path d="M136.401 22.6191L161.788 -43.5494L106.718 -88.1532L81.3283 -22.0016L136.401 22.6191Z" stroke="#D7F4E1" stroke-opacity="0.02" stroke-width="3.5" stroke-linecap="round" stroke-linejoin="round"/>
<path d="M10.5565 -25.6989L81.3312 -22.0023L136.418 22.6122L65.6296 18.9218L10.5565 -25.6989Z" stroke="#D7F4E1" stroke-opacity="0.02" stroke-width="3.5" stroke-linecap="round" stroke-linejoin="round"/>
<path d="M65.6208 18.89L83.9757 87.3431L154.746 91.0592L136.403 22.6178L65.6208 18.89Z" stroke="#D7F4E1" stroke-opacity="0.02" stroke-width="3.5" stroke-linecap="round" stroke-linejoin="round"/>
<path d="M24.1117 125.822L83.5425 87.2127L154.332 90.9274L94.8941 129.55L24.1117 125.822Z" stroke="#D7F4E1" stroke-opacity="0.02" stroke-width="3.5" stroke-linecap="round" stroke-linejoin="round"/>
<path d="M69.5232 195.733L94.9095 129.565L154.363 90.9608L128.978 157.144L69.5232 195.733Z" stroke="#D7F4E1" stroke-opacity="0.02" stroke-width="3.5" stroke-linecap="round" stroke-linejoin="round"/>
<path d="M280.069 139.615L209.295 135.918L154.208 91.3038L224.996 94.9942L280.069 139.615Z" stroke="#D7F4E1" stroke-opacity="0.02" stroke-width="3.5" stroke-linecap="round" stroke-linejoin="round"/>
<path d="M284.423 56.3651L224.993 94.9748L154.203 91.2601L213.641 52.6374L284.423 56.3651Z" stroke="#D7F4E1" stroke-opacity="0.02" stroke-width="3.5" stroke-linecap="round" stroke-linejoin="round"/>
<path d="M285.075 55.9671L266.72 -12.4859L292.128 -78.6631L310.493 -10.199L285.075 55.9671Z" stroke="#D7F4E1" stroke-opacity="0.02" stroke-width="3.5" stroke-linecap="round" stroke-linejoin="round"/>
<path d="M365.597 34.3841L310.512 -10.2069L292.169 -78.6799L347.269 -34.0859L365.597 34.3841Z" stroke="#D7F4E1" stroke-opacity="0.02" stroke-width="3.5" stroke-linecap="round" stroke-linejoin="round"/>
<path d="M155.8 772.235L226.575 775.932L251.978 709.774L181.218 706.069L155.8 772.235Z" stroke="#D7F4E1" stroke-opacity="0.02" stroke-width="3.5" stroke-linecap="round" stroke-linejoin="round"/>
<path d="M155.76 772.204L174.115 840.657L244.885 844.373L226.543 775.932L155.76 772.204Z" stroke="#D7F4E1" stroke-opacity="0.02" stroke-width="3.5" stroke-linecap="round" stroke-linejoin="round"/>
<path d="M126.079 661.431L100.693 727.599L155.763 772.203L181.152 706.051L126.079 661.431Z" stroke="#D7F4E1" stroke-opacity="0.02" stroke-width="3.5" stroke-linecap="round" stroke-linejoin="round"/>
<path d="M174.125 840.704L119.04 796.113L100.698 727.64L155.798 772.234L174.125 840.704Z" stroke="#D7F4E1" stroke-opacity="0.02" stroke-width="3.5" stroke-linecap="round" stroke-linejoin="round"/>
<path d="M174.131 840.703L119.046 796.112L59.6073 834.703L114.675 879.292L174.131 840.703Z" stroke="#D7F4E1" stroke-opacity="0.02" stroke-width="3.5" stroke-linecap="round" stroke-linejoin="round"/>
<path d="M59.3853 834.614L118.816 796.004L100.481 727.55L41.0577 766.144L59.3853 834.614Z" stroke="#D7F4E1" stroke-opacity="0.02" stroke-width="3.5" stroke-linecap="round" stroke-linejoin="round"/>
<path d="M89.2839 945.461L114.67 879.293L174.124 840.689L148.739 906.872L89.2839 945.461Z" stroke="#D7F4E1" stroke-opacity="0.02" stroke-width="3.5" stroke-linecap="round" stroke-linejoin="round"/>
<path d="M-29.7133 762.421L41.0601 766.143L100.509 727.531L29.7222 723.802L-29.7133 762.421Z" stroke="#D7F4E1" stroke-opacity="0.02" stroke-width="3.5" stroke-linecap="round" stroke-linejoin="round"/>
<path d="M29.7226 723.801L100.497 727.498L125.901 661.34L55.1409 657.635L29.7226 723.801Z" stroke="#D7F4E1" stroke-opacity="0.02" stroke-width="3.5" stroke-linecap="round" stroke-linejoin="round"/>
<path d="M148.706 906.871L219.481 910.568L244.884 844.41L174.124 840.705L148.706 906.871Z" stroke="#D7F4E1" stroke-opacity="0.02" stroke-width="3.5" stroke-linecap="round" stroke-linejoin="round"/>
<path d="M52.4968 548.24L107.582 592.831L125.924 661.304L70.8245 616.71L52.4968 548.24Z" stroke="#D7F4E1" stroke-opacity="0.02" stroke-width="3.5" stroke-linecap="round" stroke-linejoin="round"/>
<path d="M0.0379691 613.03L70.8126 616.726L125.899 661.341L55.111 657.65L0.0379691 613.03Z" stroke="#D7F4E1" stroke-opacity="0.02" stroke-width="3.5" stroke-linecap="round" stroke-linejoin="round"/>
<path d="M329.791 740.223L304.405 806.392L244.951 844.996L270.336 778.812L329.791 740.223Z" stroke="#D7F4E1" stroke-opacity="0.02" stroke-width="3.5" stroke-linecap="round" stroke-linejoin="round"/>
<path d="M251.962 710.356L270.317 778.809L244.909 844.986L226.544 776.522L251.962 710.356Z" stroke="#D7F4E1" stroke-opacity="0.02" stroke-width="3.5" stroke-linecap="round" stroke-linejoin="round"/>
<path d="M251.788 709.613L181.014 705.917L125.927 661.302L196.715 664.993L251.788 709.613Z" stroke="#D7F4E1" stroke-opacity="0.02" stroke-width="3.5" stroke-linecap="round" stroke-linejoin="round"/>
<path d="M256.142 626.364L196.711 664.973L125.922 661.259L185.36 622.636L256.142 626.364Z" stroke="#D7F4E1" stroke-opacity="0.02" stroke-width="3.5" stroke-linecap="round" stroke-linejoin="round"/>
<path d="M1425.8 158.296L1366.36 196.906L1384.7 265.36L1444.12 226.766L1425.8 158.296Z" stroke="#D7F4E1" stroke-opacity="0.02" stroke-width="3.5" stroke-linecap="round" stroke-linejoin="round"/>
<path d="M1365.87 618.189L1340.48 684.357L1395.55 728.961L1420.94 662.809L1365.87 618.189Z" stroke="#D7F4E1" stroke-opacity="0.02" stroke-width="3.5" stroke-linecap="round" stroke-linejoin="round"/>
<path d="M-1.3057 191.988L69.4691 195.684L94.8724 129.527L24.1126 125.822L-1.3057 191.988Z" stroke="#D7F4E1" stroke-opacity="0.02" stroke-width="3.5" stroke-linecap="round" stroke-linejoin="round"/>
<path d="M69.1145 616.758L50.7596 548.305L-20.0102 544.589L-1.6679 613.031L69.1145 616.758Z" stroke="#D7F4E1" stroke-opacity="0.02" stroke-width="3.5" stroke-linecap="round" stroke-linejoin="round"/>
</g>
</g>
<defs>
<clipPath id="clip0_1261_5670">
<rect width="1440" height="826" fill="white"/>
</clipPath>
<clipPath id="clip1_1261_5670">
<rect width="1750" height="1750" fill="white" transform="translate(-351.651 -205.719) rotate(-15)"/>
</clipPath>
</defs>
</svg>
