<svg viewBox="0 0 388 42" fill="none" xmlns="http://www.w3.org/2000/svg">
<path d="M58.1328 10.9998L48.1573 10.9998L48.1573 1.27246L38.8271 1.27246L38.827 10.9998L29.0005 10.9998" stroke="#679BCF"/>
<path d="M29.1328 10.9998L19.1573 10.9998L19.1573 1.27246L9.82705 1.27246L9.82705 10.9998L0.000466729 10.9998" stroke="#679BCF"/>
<path d="M116 11H106.25V1H96.5V11H77V21H68V11H58" stroke="#679BCF"/>
<path d="M116 11H125.75V1H135.5V11H155V21H164V11H174" stroke="#679BCF"/>
<path d="M174 11H183.75V1H193.5V11H213V21H222V11H232" stroke="#679BCF"/>
<path d="M319.133 31.0002L309.157 31.0002L309.157 40.7275L299.827 40.7275L299.827 31.0002L290 31.0002" stroke="#679BCF"/>
<path d="M348.133 31.0002L338.157 31.0002L338.157 40.7275L328.827 40.7275L328.827 31.0002L319 31.0002" stroke="#679BCF"/>
<path d="M387.133 31.0002L367.157 31.0002L367.157 40.7275L357.827 40.7275L357.827 31.0002L348 31.0002" stroke="#679BCF"/>
<path d="M116 31H106.25V41H96.5V31H77V41H68V31H58" stroke="#679BCF"/>
<path d="M58 31H48.25V21H38.5V31H29" stroke="#679BCF"/>
<path d="M116 31H125.75V21H135.5V31H155V41H164V31H174" stroke="#679BCF"/>
<path d="M174 31H183.75V21H193.5V31H213V41H222V31H232" stroke="#679BCF"/>
<path d="M232 31H241.75V21H251.5V31H271V41H280V31H290" stroke="#679BCF"/>
</svg>
